<svg width="36" height="73" viewBox="0 0 36 73" fill="none" xmlns="http://www.w3.org/2000/svg">
<circle cx="17.5664" cy="9" r="9" fill="white"/>
<path d="M25.0567 19.9992C23.5567 19.4992 11.0567 19.4987 10.0567 19.9992C9.05666 20.4998 0.566544 29 0.0660679 32C-0.434408 35 2.05666 47.9992 2.55666 48.9992C3.05666 49.9992 5.55696 49.4987 6.55667 47.4992C7.55637 45.4998 4.05667 34.4998 4.05667 32.9992C4.05667 31.4987 8.05666 29.9987 9.05666 30.9992C10.0567 31.9998 9.05666 65.4992 9.05666 67.4992C9.05666 69.4992 8.05667 67.9992 6.05667 69.4992C4.05667 70.9992 5.05667 72.4992 5.05667 72.4992C5.05667 72.4992 15.0567 73.4992 15.5567 72.4992C16.0567 71.4992 15.5567 48.9992 15.5567 47.9992C15.5567 46.9992 20.5567 46.9992 20.5567 47.9992C20.5567 48.9992 20.0567 71.4992 20.5567 72.4992C21.0567 73.4992 30.5567 72.4992 30.5567 72.4992C30.5567 72.4992 31.5567 70.9992 30.5567 69.4992C29.5567 67.9992 26.5567 69.4992 26.5567 67.4992C26.5567 65.4992 25.5567 31.9998 26.5567 29.9992C27.5567 27.9987 30.5567 32.4992 30.5567 33.4992C30.5567 34.4992 29.0567 46.9992 29.5567 47.9992C30.0567 48.9992 32.5567 48.9992 33.5567 47.4992C34.5567 45.9992 36.0567 33.9992 35.5567 32.4992C35.0567 30.9992 26.5567 20.4992 25.0567 19.9992Z" fill="white"/>
</svg>
