<svg width="1043" height="408" viewBox="0 0 1043 408" fill="none" xmlns="http://www.w3.org/2000/svg">
<path d="M104.461 320.673C116.14 320.673 119.804 316.78 119.804 309.681C119.804 300.063 115.453 294.567 90.7206 291.132C40.1116 284.262 30.2646 267.087 30.2646 236.401C30.2646 199.532 53.3936 183.044 108.583 183.044C170.871 183.044 186.443 198.158 186.443 230.218C186.443 233.882 186.214 237.775 185.985 241.897C177.054 240.981 161.482 240.294 149.116 240.294C141.33 240.294 134.231 240.523 129.651 240.752C129.88 238.92 129.88 237.317 129.88 236.172C129.88 227.928 126.445 223.348 113.163 223.348C102.858 223.348 98.9646 227.012 98.9646 233.195C98.9646 241.897 102.4 247.622 129.88 251.973C174.993 259.072 188.962 273.041 188.962 307.849C188.962 344.031 169.039 361.206 109.957 361.206C47.4396 361.206 30.4936 347.237 30.4936 314.032C30.4936 309.681 30.7226 305.101 31.1806 300.292C41.7146 300.979 56.8286 302.124 71.0266 302.124C77.8966 302.124 84.0796 301.895 88.6596 301.666C88.4306 303.269 88.4306 304.872 88.4306 306.246C88.4306 316.322 92.3236 320.673 104.461 320.673ZM195.907 186.25H333.307C332.849 194.265 332.849 206.86 332.849 218.081C332.849 229.073 332.849 242.584 333.307 251.286C322.773 251.057 312.468 251.057 302.392 250.828C302.621 300.521 302.85 347.008 303.308 358.229C293.232 357.542 276.515 357.542 264.607 357.542C252.699 357.542 236.44 357.542 225.906 358.229C226.364 347.008 226.822 300.521 227.051 250.828C216.975 250.828 206.441 251.057 195.907 251.286C196.136 242.584 196.136 229.073 196.136 218.081C196.136 206.86 196.136 194.265 195.907 186.25ZM447.812 186.25H517.428C516.741 201.822 516.512 217.623 516.512 240.752C516.512 255.179 516.97 278.079 516.97 293.88C516.97 340.367 498.192 360.977 431.324 360.977C364.456 360.977 345.678 340.367 345.678 293.88C345.678 278.079 345.907 255.179 345.907 240.752C345.907 217.623 345.449 201.822 344.991 186.25H417.584C417.126 216.02 416.668 259.53 416.668 286.094C416.668 299.605 421.477 305.559 432.927 305.559C444.148 305.559 448.499 299.605 448.499 286.094C448.499 259.53 448.041 216.02 447.812 186.25ZM617.743 306.933C632.628 306.933 638.811 301.895 638.811 268.69C638.811 235.943 632.628 231.592 617.972 231.592C614.079 231.592 609.957 231.821 606.064 231.821C605.606 244.645 605.606 257.927 605.606 271.438C605.606 286.094 605.606 297.315 605.835 306.704C609.728 306.933 613.621 306.933 617.743 306.933ZM535.99 186.25H626.903C683.466 186.25 708.885 199.761 708.885 265.255C708.885 340.596 686.901 358 625.987 358H535.99C536.448 333.726 536.677 308.765 536.677 272.354C536.677 235.943 536.448 209.608 535.99 186.25ZM796.221 358H723.17C723.857 333.497 723.857 308.536 723.857 272.125C723.857 235.714 723.857 210.524 723.17 186.25H796.221C795.763 210.524 795.763 235.485 795.763 271.896C795.763 308.307 795.763 333.268 796.221 358ZM993.922 268.232C993.922 334.413 966.671 360.977 901.406 360.977C836.37 360.977 810.493 334.413 810.493 268.232C810.493 202.967 840.263 183.273 901.406 183.273C962.549 183.273 993.922 202.967 993.922 268.232ZM901.635 307.62C914.688 307.62 920.642 298.002 920.642 268.003C920.642 239.836 914.459 231.592 901.635 231.592C888.811 231.592 882.399 239.607 882.399 268.003C882.399 298.231 888.582 307.62 901.635 307.62Z" fill="white" style="fill:white;fill-opacity:1;"/>
<path d="M108.58 108.666V105.182C113.94 105.316 119.3 105.316 124.66 105.316C130.02 105.316 135.514 105.316 140.874 105.182C141.008 107.326 141.008 109.336 141.008 111.078C141.008 137.744 125.33 150.742 93.0359 150.742C58.9999 150.742 42.5179 135.198 42.5179 97.41C42.5179 62.838 58.4639 46.758 93.4379 46.758C127.742 46.758 140.74 60.158 140.74 82C140.74 84.546 140.606 87.36 140.338 90.308C134.978 90.04 129.484 90.04 124.258 90.04C118.898 90.04 113.672 90.04 108.312 90.308C108.446 89.236 108.446 88.164 108.446 87.36C108.446 75.97 103.22 72.084 93.0359 72.084C81.7799 72.218 76.4199 77.444 76.4199 97.276C76.4199 116.974 81.9139 123.54 93.7059 123.54C104.024 123.54 108.58 117.644 108.58 108.666ZM218.811 48.5H252.713C252.311 62.302 252.177 77.444 252.177 98.75C252.177 120.056 252.311 134.528 252.713 149H218.811C219.079 139.352 219.213 124.746 219.347 113.088C214.523 112.954 209.163 112.954 203.803 112.954C198.443 112.954 193.083 112.954 188.259 113.088C188.259 124.746 188.393 139.218 188.795 149H154.893C155.429 134.528 155.429 120.056 155.429 98.75C155.429 77.444 155.429 62.302 154.893 48.5H188.795C188.393 57.88 188.259 73.022 188.259 85.082C193.083 85.216 198.443 85.35 203.803 85.35C209.163 85.35 214.523 85.216 219.347 85.082C219.213 73.022 219.079 57.88 218.811 48.5ZM316.008 109.202H327.532C325.388 99.42 323.11 89.37 320.832 80.66C318.822 73.826 317.348 67.26 316.276 62.436H315.874C314.668 67.26 313.194 73.692 311.184 80.928C309.174 89.638 306.896 99.554 304.618 109.202H316.008ZM372.556 149H335.036C334.634 145.382 333.562 138.414 331.82 129.838C326.058 129.838 320.43 129.838 316.008 129.838C311.854 129.838 306.092 129.838 300.196 129.838C298.454 138.146 297.114 144.98 296.578 149H262.274C270.448 123.808 286.662 62.436 290.012 48.5H343.746C347.498 62.57 363.846 123.406 372.556 149ZM429.395 97.008C438.239 97.008 442.259 92.854 442.259 83.876C442.259 73.156 437.703 70.744 427.653 70.744C424.839 70.744 418.273 70.878 413.047 71.012C413.047 79.722 413.047 88.432 413.181 96.74C416.933 96.874 422.829 96.874 429.395 97.008ZM450.567 108.264V109.068C464.369 110.81 469.863 114.83 473.213 128.364C475.357 136.002 477.367 144.444 478.707 149H448.825C443.867 149 442.929 147.258 440.651 136.94C437.435 120.056 435.559 117.108 427.385 117.108C422.561 117.108 419.747 116.974 413.315 117.108C413.583 129.972 413.985 141.094 414.789 149H380.887C381.155 134.394 381.423 120.19 381.423 98.75C381.423 77.444 381.289 62.972 380.887 48.5H435.693C460.215 48.5 474.285 57.612 474.285 78.784C474.285 97.142 467.585 105.584 450.567 108.264ZM533.365 109.202H544.889C542.745 99.42 540.467 89.37 538.189 80.66C536.179 73.826 534.705 67.26 533.633 62.436H533.231C532.025 67.26 530.551 73.692 528.541 80.928C526.531 89.638 524.253 99.554 521.975 109.202H533.365ZM589.913 149H552.393C551.991 145.382 550.919 138.414 549.177 129.838C543.415 129.838 537.787 129.838 533.365 129.838C529.211 129.838 523.449 129.838 517.553 129.838C515.811 138.146 514.471 144.98 513.935 149H479.631C487.805 123.808 504.019 62.436 507.369 48.5H561.103C564.855 62.57 581.203 123.406 589.913 149ZM657.012 108.666V105.182C662.372 105.316 667.732 105.316 673.092 105.316C678.452 105.316 683.946 105.316 689.306 105.182C689.44 107.326 689.44 109.336 689.44 111.078C689.44 137.744 673.762 150.742 641.468 150.742C607.432 150.742 590.95 135.198 590.95 97.41C590.95 62.838 606.896 46.758 641.87 46.758C676.174 46.758 689.172 60.158 689.172 82C689.172 84.546 689.038 87.36 688.77 90.308C683.41 90.04 677.916 90.04 672.69 90.04C667.33 90.04 662.104 90.04 656.744 90.308C656.878 89.236 656.878 88.164 656.878 87.36C656.878 75.97 651.652 72.084 641.468 72.084C630.212 72.218 624.852 77.444 624.852 97.276C624.852 116.974 630.346 123.54 642.138 123.54C652.456 123.54 657.012 117.644 657.012 108.666ZM696.892 48.5H777.292C777.158 52.252 777.158 58.014 777.158 63.24C777.158 68.198 777.158 74.496 777.292 78.516C769.386 78.382 761.48 78.248 754.244 78.248C754.244 110.542 754.378 141.898 754.78 149.134C750.09 148.732 742.452 148.732 737.092 148.732C731.732 148.732 724.362 148.732 719.538 149.134C719.94 141.898 720.074 110.676 720.074 78.248C712.838 78.248 704.932 78.382 696.892 78.516C697.026 74.496 697.026 68.198 697.026 63.24C697.026 58.014 697.026 52.252 696.892 48.5ZM788.252 48.5H868.92C868.786 51.314 868.652 56.406 868.652 60.292C868.652 64.446 868.652 70.208 868.92 73.156C852.572 73.022 834.75 72.888 821.35 72.888V86.958C837.296 86.958 854.582 86.958 867.714 86.556C867.58 91.514 867.58 103.172 867.58 108.532C854.582 108.264 837.162 108.13 821.35 108.13V122.736C834.884 122.736 853.644 122.602 868.92 122.468C868.652 125.684 868.652 131.58 868.652 136.27C868.652 140.29 868.652 145.65 868.92 149H788.252C788.654 135.466 788.654 120.19 788.654 98.75C788.654 77.444 788.654 61.498 788.252 48.5ZM933.203 97.008C942.047 97.008 946.067 92.854 946.067 83.876C946.067 73.156 941.511 70.744 931.461 70.744C928.647 70.744 922.081 70.878 916.855 71.012C916.855 79.722 916.855 88.432 916.989 96.74C920.741 96.874 926.637 96.874 933.203 97.008ZM954.375 108.264V109.068C968.177 110.81 973.671 114.83 977.021 128.364C979.165 136.002 981.175 144.444 982.515 149H952.633C947.675 149 946.737 147.258 944.459 136.94C941.243 120.056 939.367 117.108 931.193 117.108C926.369 117.108 923.555 116.974 917.123 117.108C917.391 129.972 917.793 141.094 918.597 149H884.695C884.963 134.394 885.231 120.19 885.231 98.75C885.231 77.444 885.097 62.972 884.695 48.5H939.501C964.023 48.5 978.093 57.612 978.093 78.784C978.093 97.142 971.393 105.584 954.375 108.264Z" fill="white" style="fill:white;fill-opacity:1;"/>
</svg>
