<svg width="512" height="512" viewBox="0 0 512 512" fill="none" xmlns="http://www.w3.org/2000/svg">
<g clip-path="url(#clip0_409_125)">
<path d="M44.8516 241.456L2.61156 112.8H153.62L111.38 241.456L78.1156 189.36L44.8516 241.456ZM135.107 236L200.403 107.52L265.699 236H135.107ZM289.43 241.456L247.19 112.8H398.198L355.958 241.456L322.694 189.36L289.43 241.456ZM379.685 236L444.981 107.52L510.277 236H379.685ZM5.51584 373V339.298C23.5998 339.298 29.9018 334.64 40.0398 309.158C48.8078 287.101 60.7268 277.1 83.3318 277.1H87.9898V310.665H87.8528C77.1668 310.665 73.3308 320.392 67.7138 335.873C58.3978 361.492 41.2728 373 14.4208 373H5.51584ZM173.891 310.802H134.298V321.625H166.493V327.927H134.298V339.298H173.891V373H100.596V277.1H173.891V310.802ZM238.22 277.1H272.47V373H188.763V274.634L238.22 323.406V277.1ZM285.135 373V339.298C303.219 339.298 309.521 334.64 319.659 309.158C328.427 287.101 340.346 277.1 362.951 277.1H367.609V310.665H367.472C356.786 310.665 352.95 320.392 347.333 335.873C338.017 361.492 320.892 373 294.04 373H285.135ZM453.51 310.802H413.917V321.625H446.112V327.927H413.917V339.298H453.51V373H380.215V277.1H453.51V310.802ZM468.382 373V277.1H502.632V373H468.382Z" fill="white" style="fill:white;fill-opacity:1;"/>
</g>
<defs>
<clipPath id="clip0_409_125">
<rect width="512" height="512" fill="white" style="fill:white;fill-opacity:1;"/>
</clipPath>
</defs>
</svg>
